<mxfile host="app.diagrams.net" modified="2023-02-24T17:33:05.899Z" agent="5.0 (X11; Linux x86_64) AppleWebKit/537.36 (KHTML, like Gecko) Chrome/109.0.0.0 Safari/537.36" etag="HbEeB3bxi5Ehd22sKfTT" version="20.8.23" type="github">
  <diagram name="Page-1" id="YWpABoFUmQe1NaXI15Zw">
    <mxGraphModel dx="1832" dy="1691" grid="1" gridSize="10" guides="1" tooltips="1" connect="1" arrows="0" fold="1" page="1" pageScale="1" pageWidth="850" pageHeight="1100" math="0" shadow="0">
      <root>
        <mxCell id="0" />
        <mxCell id="1" parent="0" />
        <mxCell id="wy4c9mbsXyodpzU9gjJJ-7" style="edgeStyle=orthogonalEdgeStyle;rounded=1;orthogonalLoop=1;jettySize=auto;html=1;exitX=0;exitY=0.25;exitDx=0;exitDy=0;entryX=1.006;entryY=0.1;entryDx=0;entryDy=0;entryPerimeter=0;" parent="1" source="mjoqd2JL3-UamSWrY_jR-5" target="mjoqd2JL3-UamSWrY_jR-15" edge="1">
          <mxGeometry relative="1" as="geometry" />
        </mxCell>
        <mxCell id="mjoqd2JL3-UamSWrY_jR-5" value="Order" style="swimlane;fontStyle=0;childLayout=stackLayout;horizontal=1;startSize=30;horizontalStack=0;resizeParent=1;resizeParentMax=0;resizeLast=0;collapsible=1;marginBottom=0;whiteSpace=wrap;html=1;fontFamily=Courier New;fillColor=#dae8fc;strokeColor=#6c8ebf;rounded=1;shadow=1;glass=1;" parent="1" vertex="1">
          <mxGeometry x="580" y="-65" width="140" height="120" as="geometry" />
        </mxCell>
        <mxCell id="mjoqd2JL3-UamSWrY_jR-6" value="order_id" style="text;strokeColor=none;fillColor=none;align=left;verticalAlign=middle;spacingLeft=4;spacingRight=4;overflow=hidden;points=[[0,0.5],[1,0.5]];portConstraint=eastwest;rotatable=0;whiteSpace=wrap;html=1;fontSize=9;rounded=1;fontFamily=Courier New;" parent="mjoqd2JL3-UamSWrY_jR-5" vertex="1">
          <mxGeometry y="30" width="140" height="30" as="geometry" />
        </mxCell>
        <mxCell id="mjoqd2JL3-UamSWrY_jR-7" value="order_details" style="text;strokeColor=none;fillColor=none;align=left;verticalAlign=middle;spacingLeft=4;spacingRight=4;overflow=hidden;points=[[0,0.5],[1,0.5]];portConstraint=eastwest;rotatable=0;whiteSpace=wrap;html=1;fontSize=9;rounded=1;fontFamily=Courier New;" parent="mjoqd2JL3-UamSWrY_jR-5" vertex="1">
          <mxGeometry y="60" width="140" height="30" as="geometry" />
        </mxCell>
        <mxCell id="mjoqd2JL3-UamSWrY_jR-8" value="Item 3" style="text;strokeColor=none;fillColor=none;align=left;verticalAlign=middle;spacingLeft=4;spacingRight=4;overflow=hidden;points=[[0,0.5],[1,0.5]];portConstraint=eastwest;rotatable=0;whiteSpace=wrap;html=1;fontSize=9;rounded=1;fontFamily=Courier New;" parent="mjoqd2JL3-UamSWrY_jR-5" vertex="1">
          <mxGeometry y="90" width="140" height="30" as="geometry" />
        </mxCell>
        <mxCell id="wy4c9mbsXyodpzU9gjJJ-11" style="edgeStyle=orthogonalEdgeStyle;rounded=1;orthogonalLoop=1;jettySize=auto;html=1;exitX=0;exitY=0.75;exitDx=0;exitDy=0;" parent="1" source="mjoqd2JL3-UamSWrY_jR-9" target="mjoqd2JL3-UamSWrY_jR-29" edge="1">
          <mxGeometry relative="1" as="geometry" />
        </mxCell>
        <mxCell id="mjoqd2JL3-UamSWrY_jR-9" value="Supplier" style="swimlane;fontStyle=0;childLayout=stackLayout;horizontal=1;startSize=30;horizontalStack=0;resizeParent=1;resizeParentMax=0;resizeLast=0;collapsible=1;marginBottom=0;whiteSpace=wrap;html=1;fontFamily=Courier New;fontSize=12;fillColor=#ffe6cc;strokeColor=#d79b00;rounded=1;glass=1;shadow=1;" parent="1" vertex="1">
          <mxGeometry x="20" y="60" width="140" height="150" as="geometry" />
        </mxCell>
        <mxCell id="mjoqd2JL3-UamSWrY_jR-10" value="supplier_id" style="text;strokeColor=none;fillColor=none;align=left;verticalAlign=middle;spacingLeft=4;spacingRight=4;overflow=hidden;points=[[0,0.5],[1,0.5]];portConstraint=eastwest;rotatable=0;whiteSpace=wrap;html=1;fontFamily=Courier New;fontSize=9;rounded=1;" parent="mjoqd2JL3-UamSWrY_jR-9" vertex="1">
          <mxGeometry y="30" width="140" height="30" as="geometry" />
        </mxCell>
        <mxCell id="wy4c9mbsXyodpzU9gjJJ-44" value="supplier_num" style="text;strokeColor=none;fillColor=none;align=left;verticalAlign=middle;spacingLeft=4;spacingRight=4;overflow=hidden;points=[[0,0.5],[1,0.5]];portConstraint=eastwest;rotatable=0;whiteSpace=wrap;html=1;fontFamily=Courier New;fontSize=9;rounded=1;" parent="mjoqd2JL3-UamSWrY_jR-9" vertex="1">
          <mxGeometry y="60" width="140" height="30" as="geometry" />
        </mxCell>
        <mxCell id="mjoqd2JL3-UamSWrY_jR-11" value="supplier_name" style="text;strokeColor=none;fillColor=none;align=left;verticalAlign=middle;spacingLeft=4;spacingRight=4;overflow=hidden;points=[[0,0.5],[1,0.5]];portConstraint=eastwest;rotatable=0;whiteSpace=wrap;html=1;fontSize=9;fontFamily=Courier New;rounded=1;" parent="mjoqd2JL3-UamSWrY_jR-9" vertex="1">
          <mxGeometry y="90" width="140" height="30" as="geometry" />
        </mxCell>
        <mxCell id="mjoqd2JL3-UamSWrY_jR-12" value="supplier_address" style="text;strokeColor=none;fillColor=none;align=left;verticalAlign=middle;spacingLeft=4;spacingRight=4;overflow=hidden;points=[[0,0.5],[1,0.5]];portConstraint=eastwest;rotatable=0;whiteSpace=wrap;html=1;fontFamily=Courier New;fontSize=9;rounded=1;" parent="mjoqd2JL3-UamSWrY_jR-9" vertex="1">
          <mxGeometry y="120" width="140" height="30" as="geometry" />
        </mxCell>
        <mxCell id="mjoqd2JL3-UamSWrY_jR-13" value="Customer" style="swimlane;fontStyle=0;childLayout=stackLayout;horizontal=1;startSize=30;horizontalStack=0;resizeParent=1;resizeParentMax=0;resizeLast=0;collapsible=1;marginBottom=0;whiteSpace=wrap;html=1;fontFamily=Courier New;labelBackgroundColor=none;fillColor=#b0e3e6;strokeColor=#0e8088;rounded=1;glass=1;shadow=1;" parent="1" vertex="1">
          <mxGeometry x="230" y="-110" width="140" height="150" as="geometry" />
        </mxCell>
        <mxCell id="mjoqd2JL3-UamSWrY_jR-14" value="customer_id" style="text;strokeColor=none;fillColor=none;align=left;verticalAlign=middle;spacingLeft=4;spacingRight=4;overflow=hidden;points=[[0,0.5],[1,0.5]];portConstraint=eastwest;rotatable=0;whiteSpace=wrap;html=1;fontSize=9;fontFamily=Courier New;rounded=1;" parent="mjoqd2JL3-UamSWrY_jR-13" vertex="1">
          <mxGeometry y="30" width="140" height="30" as="geometry" />
        </mxCell>
        <mxCell id="wy4c9mbsXyodpzU9gjJJ-27" value="customer_email" style="text;strokeColor=none;fillColor=none;align=left;verticalAlign=middle;spacingLeft=4;spacingRight=4;overflow=hidden;points=[[0,0.5],[1,0.5]];portConstraint=eastwest;rotatable=0;whiteSpace=wrap;html=1;fontSize=9;fontFamily=Courier New;rounded=1;" parent="mjoqd2JL3-UamSWrY_jR-13" vertex="1">
          <mxGeometry y="60" width="140" height="30" as="geometry" />
        </mxCell>
        <mxCell id="mjoqd2JL3-UamSWrY_jR-15" value="customer_name" style="text;strokeColor=none;fillColor=none;align=left;verticalAlign=middle;spacingLeft=4;spacingRight=4;overflow=hidden;points=[[0,0.5],[1,0.5]];portConstraint=eastwest;rotatable=0;whiteSpace=wrap;html=1;fontSize=9;fontFamily=Courier New;rounded=1;" parent="mjoqd2JL3-UamSWrY_jR-13" vertex="1">
          <mxGeometry y="90" width="140" height="30" as="geometry" />
        </mxCell>
        <mxCell id="mjoqd2JL3-UamSWrY_jR-16" value="&lt;b&gt;&lt;i&gt;customer_address&lt;/i&gt;&lt;/b&gt;" style="text;strokeColor=none;fillColor=none;align=left;verticalAlign=middle;spacingLeft=4;spacingRight=4;overflow=hidden;points=[[0,0.5],[1,0.5]];portConstraint=eastwest;rotatable=0;whiteSpace=wrap;html=1;fontFamily=Courier New;fontSize=9;rounded=1;" parent="mjoqd2JL3-UamSWrY_jR-13" vertex="1">
          <mxGeometry y="120" width="140" height="30" as="geometry" />
        </mxCell>
        <mxCell id="wy4c9mbsXyodpzU9gjJJ-5" style="edgeStyle=orthogonalEdgeStyle;rounded=1;orthogonalLoop=1;jettySize=auto;html=1;" parent="1" source="wy4c9mbsXyodpzU9gjJJ-21" target="mjoqd2JL3-UamSWrY_jR-13" edge="1">
          <mxGeometry relative="1" as="geometry">
            <mxPoint x="365" y="70" as="sourcePoint" />
          </mxGeometry>
        </mxCell>
        <mxCell id="mjoqd2JL3-UamSWrY_jR-21" value="Product" style="swimlane;fontStyle=0;childLayout=stackLayout;horizontal=1;startSize=30;horizontalStack=0;resizeParent=1;resizeParentMax=0;resizeLast=0;collapsible=1;marginBottom=0;whiteSpace=wrap;html=1;fontFamily=Courier New;fontSize=12;fillColor=#f8cecc;strokeColor=#b85450;rounded=1;glass=1;shadow=1;" parent="1" vertex="1">
          <mxGeometry x="285" y="220" width="140" height="120" as="geometry" />
        </mxCell>
        <mxCell id="mjoqd2JL3-UamSWrY_jR-22" value="product_id" style="text;strokeColor=none;fillColor=none;align=left;verticalAlign=middle;spacingLeft=4;spacingRight=4;overflow=hidden;points=[[0,0.5],[1,0.5]];portConstraint=eastwest;rotatable=0;whiteSpace=wrap;html=1;fontSize=9;fontFamily=Courier New;rounded=1;" parent="mjoqd2JL3-UamSWrY_jR-21" vertex="1">
          <mxGeometry y="30" width="140" height="30" as="geometry" />
        </mxCell>
        <mxCell id="mjoqd2JL3-UamSWrY_jR-23" value="product_description" style="text;strokeColor=none;fillColor=none;align=left;verticalAlign=middle;spacingLeft=4;spacingRight=4;overflow=hidden;points=[[0,0.5],[1,0.5]];portConstraint=eastwest;rotatable=0;whiteSpace=wrap;html=1;fontSize=9;fontFamily=Courier New;rounded=1;" parent="mjoqd2JL3-UamSWrY_jR-21" vertex="1">
          <mxGeometry y="60" width="140" height="30" as="geometry" />
        </mxCell>
        <mxCell id="mjoqd2JL3-UamSWrY_jR-24" value="product_name" style="text;strokeColor=none;fillColor=none;align=left;verticalAlign=middle;spacingLeft=4;spacingRight=4;overflow=hidden;points=[[0,0.5],[1,0.5]];portConstraint=eastwest;rotatable=0;whiteSpace=wrap;html=1;fontSize=9;fontFamily=Courier New;rounded=1;" parent="mjoqd2JL3-UamSWrY_jR-21" vertex="1">
          <mxGeometry y="90" width="140" height="30" as="geometry" />
        </mxCell>
        <mxCell id="mjoqd2JL3-UamSWrY_jR-25" value="Shopping Cart" style="swimlane;fontStyle=0;childLayout=stackLayout;horizontal=1;startSize=30;horizontalStack=0;resizeParent=1;resizeParentMax=0;resizeLast=0;collapsible=1;marginBottom=0;whiteSpace=wrap;html=1;fontFamily=Courier New;fontSize=12;fillColor=#dae8fc;strokeColor=#6c8ebf;rounded=1;shadow=1;glass=1;" parent="1" vertex="1">
          <mxGeometry x="610" y="120" width="140" height="180" as="geometry" />
        </mxCell>
        <mxCell id="mjoqd2JL3-UamSWrY_jR-26" value="order" style="text;strokeColor=none;fillColor=none;align=left;verticalAlign=middle;spacingLeft=4;spacingRight=4;overflow=hidden;points=[[0,0.5],[1,0.5]];portConstraint=eastwest;rotatable=0;whiteSpace=wrap;html=1;fontSize=9;fontFamily=Courier New;rounded=1;" parent="mjoqd2JL3-UamSWrY_jR-25" vertex="1">
          <mxGeometry y="30" width="140" height="30" as="geometry" />
        </mxCell>
        <mxCell id="mjoqd2JL3-UamSWrY_jR-27" value="product" style="text;strokeColor=none;fillColor=none;align=left;verticalAlign=middle;spacingLeft=4;spacingRight=4;overflow=hidden;points=[[0,0.5],[1,0.5]];portConstraint=eastwest;rotatable=0;whiteSpace=wrap;html=1;fontSize=9;fontFamily=Courier New;rounded=1;" parent="mjoqd2JL3-UamSWrY_jR-25" vertex="1">
          <mxGeometry y="60" width="140" height="30" as="geometry" />
        </mxCell>
        <mxCell id="mjoqd2JL3-UamSWrY_jR-28" value="billing" style="text;strokeColor=none;fillColor=none;align=left;verticalAlign=middle;spacingLeft=4;spacingRight=4;overflow=hidden;points=[[0,0.5],[1,0.5]];portConstraint=eastwest;rotatable=0;whiteSpace=wrap;html=1;fontSize=9;fontFamily=Courier New;rounded=1;" parent="mjoqd2JL3-UamSWrY_jR-25" vertex="1">
          <mxGeometry y="90" width="140" height="30" as="geometry" />
        </mxCell>
        <mxCell id="Vg9ZYjElxbi22y-l5GeG-1" value="customer" style="text;strokeColor=none;fillColor=none;align=left;verticalAlign=middle;spacingLeft=4;spacingRight=4;overflow=hidden;points=[[0,0.5],[1,0.5]];portConstraint=eastwest;rotatable=0;whiteSpace=wrap;html=1;fontSize=9;fontFamily=Courier New;rounded=1;" parent="mjoqd2JL3-UamSWrY_jR-25" vertex="1">
          <mxGeometry y="120" width="140" height="30" as="geometry" />
        </mxCell>
        <mxCell id="Vg9ZYjElxbi22y-l5GeG-2" value="credit" style="text;strokeColor=none;fillColor=none;align=left;verticalAlign=middle;spacingLeft=4;spacingRight=4;overflow=hidden;points=[[0,0.5],[1,0.5]];portConstraint=eastwest;rotatable=0;whiteSpace=wrap;html=1;fontSize=9;fontFamily=Courier New;rounded=1;" parent="mjoqd2JL3-UamSWrY_jR-25" vertex="1">
          <mxGeometry y="150" width="140" height="30" as="geometry" />
        </mxCell>
        <mxCell id="mjoqd2JL3-UamSWrY_jR-29" value="Countries" style="swimlane;fontStyle=0;childLayout=stackLayout;horizontal=1;startSize=30;horizontalStack=0;resizeParent=1;resizeParentMax=0;resizeLast=0;collapsible=1;marginBottom=0;whiteSpace=wrap;html=1;fontFamily=Courier New;fontSize=12;fillColor=#e1d5e7;strokeColor=#9673a6;rounded=1;glass=1;shadow=1;" parent="1" vertex="1">
          <mxGeometry x="-30" y="250" width="140" height="120" as="geometry" />
        </mxCell>
        <mxCell id="mjoqd2JL3-UamSWrY_jR-30" value="country_id" style="text;strokeColor=none;fillColor=none;align=left;verticalAlign=middle;spacingLeft=4;spacingRight=4;overflow=hidden;points=[[0,0.5],[1,0.5]];portConstraint=eastwest;rotatable=0;whiteSpace=wrap;html=1;fontSize=9;fontFamily=Courier New;rounded=1;" parent="mjoqd2JL3-UamSWrY_jR-29" vertex="1">
          <mxGeometry y="30" width="140" height="30" as="geometry" />
        </mxCell>
        <mxCell id="mjoqd2JL3-UamSWrY_jR-31" value="country_name" style="text;strokeColor=none;fillColor=none;align=left;verticalAlign=middle;spacingLeft=4;spacingRight=4;overflow=hidden;points=[[0,0.5],[1,0.5]];portConstraint=eastwest;rotatable=0;whiteSpace=wrap;html=1;fontSize=9;fontFamily=Courier New;rounded=1;" parent="mjoqd2JL3-UamSWrY_jR-29" vertex="1">
          <mxGeometry y="60" width="140" height="30" as="geometry" />
        </mxCell>
        <mxCell id="mjoqd2JL3-UamSWrY_jR-32" value="Item 3" style="text;strokeColor=none;fillColor=none;align=left;verticalAlign=middle;spacingLeft=4;spacingRight=4;overflow=hidden;points=[[0,0.5],[1,0.5]];portConstraint=eastwest;rotatable=0;whiteSpace=wrap;html=1;fontSize=9;fontFamily=Courier New;rounded=1;" parent="mjoqd2JL3-UamSWrY_jR-29" vertex="1">
          <mxGeometry y="90" width="140" height="30" as="geometry" />
        </mxCell>
        <mxCell id="wy4c9mbsXyodpzU9gjJJ-2" value="" style="edgeStyle=entityRelationEdgeStyle;fontSize=12;html=1;endArrow=ERoneToMany;rounded=1;hachureGap=4;fontFamily=Architects Daughter;fontSource=https%3A%2F%2Ffonts.googleapis.com%2Fcss%3Ffamily%3DArchitects%2BDaughter;" parent="1" source="mjoqd2JL3-UamSWrY_jR-9" target="mjoqd2JL3-UamSWrY_jR-21" edge="1">
          <mxGeometry width="100" height="100" relative="1" as="geometry">
            <mxPoint x="180" y="120" as="sourcePoint" />
            <mxPoint x="230" y="170" as="targetPoint" />
          </mxGeometry>
        </mxCell>
        <mxCell id="wy4c9mbsXyodpzU9gjJJ-8" value="" style="edgeStyle=entityRelationEdgeStyle;fontSize=12;html=1;endArrow=ERmany;startArrow=ERmany;rounded=1;" parent="1" source="mjoqd2JL3-UamSWrY_jR-25" target="mjoqd2JL3-UamSWrY_jR-5" edge="1">
          <mxGeometry width="100" height="100" relative="1" as="geometry">
            <mxPoint x="760" y="180" as="sourcePoint" />
            <mxPoint x="860" y="80" as="targetPoint" />
          </mxGeometry>
        </mxCell>
        <mxCell id="wy4c9mbsXyodpzU9gjJJ-10" value="" style="edgeStyle=entityRelationEdgeStyle;fontSize=12;html=1;endArrow=ERmandOne;rounded=1;" parent="1" source="mjoqd2JL3-UamSWrY_jR-9" target="mjoqd2JL3-UamSWrY_jR-29" edge="1">
          <mxGeometry width="100" height="100" relative="1" as="geometry">
            <mxPoint x="-20" y="100" as="sourcePoint" />
            <mxPoint x="80" as="targetPoint" />
          </mxGeometry>
        </mxCell>
        <mxCell id="wy4c9mbsXyodpzU9gjJJ-21" value="Delivery" style="swimlane;fontStyle=0;childLayout=stackLayout;horizontal=1;startSize=30;horizontalStack=0;resizeParent=1;resizeParentMax=0;resizeLast=0;collapsible=1;marginBottom=0;whiteSpace=wrap;html=1;fillColor=#dae8fc;strokeColor=#6c8ebf;rounded=1;fontFamily=Courier New;glass=1;shadow=1;" parent="1" vertex="1">
          <mxGeometry x="390" y="90" width="140" height="120" as="geometry" />
        </mxCell>
        <mxCell id="wy4c9mbsXyodpzU9gjJJ-22" value="delivery_id" style="text;strokeColor=none;fillColor=none;align=left;verticalAlign=middle;spacingLeft=4;spacingRight=4;overflow=hidden;points=[[0,0.5],[1,0.5]];portConstraint=eastwest;rotatable=0;whiteSpace=wrap;html=1;rounded=1;fontFamily=Courier New;fontSize=9;" parent="wy4c9mbsXyodpzU9gjJJ-21" vertex="1">
          <mxGeometry y="30" width="140" height="30" as="geometry" />
        </mxCell>
        <mxCell id="wy4c9mbsXyodpzU9gjJJ-23" value="&lt;font style=&quot;font-size: 9px;&quot;&gt;delivery_name&lt;/font&gt;" style="text;strokeColor=none;fillColor=none;align=left;verticalAlign=middle;spacingLeft=4;spacingRight=4;overflow=hidden;points=[[0,0.5],[1,0.5]];portConstraint=eastwest;rotatable=0;whiteSpace=wrap;html=1;rounded=1;fontFamily=Courier New;" parent="wy4c9mbsXyodpzU9gjJJ-21" vertex="1">
          <mxGeometry y="60" width="140" height="30" as="geometry" />
        </mxCell>
        <mxCell id="wy4c9mbsXyodpzU9gjJJ-24" value="Item 3" style="text;strokeColor=none;fillColor=none;align=left;verticalAlign=middle;spacingLeft=4;spacingRight=4;overflow=hidden;points=[[0,0.5],[1,0.5]];portConstraint=eastwest;rotatable=0;whiteSpace=wrap;html=1;rounded=1;fontSize=9;fontFamily=Courier New;" parent="wy4c9mbsXyodpzU9gjJJ-21" vertex="1">
          <mxGeometry y="90" width="140" height="30" as="geometry" />
        </mxCell>
        <mxCell id="wy4c9mbsXyodpzU9gjJJ-29" value="" style="edgeStyle=entityRelationEdgeStyle;fontSize=12;html=1;endArrow=ERmany;rounded=1;" parent="1" source="wy4c9mbsXyodpzU9gjJJ-21" target="mjoqd2JL3-UamSWrY_jR-25" edge="1">
          <mxGeometry width="100" height="100" relative="1" as="geometry">
            <mxPoint x="510" y="170" as="sourcePoint" />
            <mxPoint x="610" y="70" as="targetPoint" />
          </mxGeometry>
        </mxCell>
        <mxCell id="wy4c9mbsXyodpzU9gjJJ-30" value="" style="edgeStyle=entityRelationEdgeStyle;fontSize=12;html=1;endArrow=ERmandOne;startArrow=ERmandOne;rounded=1;" parent="1" source="wy4c9mbsXyodpzU9gjJJ-21" target="mjoqd2JL3-UamSWrY_jR-5" edge="1">
          <mxGeometry width="100" height="100" relative="1" as="geometry">
            <mxPoint x="510" y="200" as="sourcePoint" />
            <mxPoint x="610" y="100" as="targetPoint" />
          </mxGeometry>
        </mxCell>
        <mxCell id="wy4c9mbsXyodpzU9gjJJ-31" value="" style="edgeStyle=entityRelationEdgeStyle;fontSize=12;html=1;endArrow=ERzeroToMany;startArrow=ERzeroToOne;rounded=1;" parent="1" source="mjoqd2JL3-UamSWrY_jR-21" target="mjoqd2JL3-UamSWrY_jR-25" edge="1">
          <mxGeometry width="100" height="100" relative="1" as="geometry">
            <mxPoint x="760" y="400" as="sourcePoint" />
            <mxPoint x="860" y="300" as="targetPoint" />
          </mxGeometry>
        </mxCell>
        <mxCell id="wy4c9mbsXyodpzU9gjJJ-33" value="Billing" style="swimlane;fontStyle=0;childLayout=stackLayout;horizontal=1;startSize=30;horizontalStack=0;resizeParent=1;resizeParentMax=0;resizeLast=0;collapsible=1;marginBottom=0;whiteSpace=wrap;html=1;rounded=1;fontFamily=Courier New;fillColor=#dae8fc;strokeColor=#6c8ebf;glass=1;shadow=1;" parent="1" vertex="1">
          <mxGeometry x="610" y="-220" width="140" height="120" as="geometry" />
        </mxCell>
        <mxCell id="wy4c9mbsXyodpzU9gjJJ-34" value="billing_id" style="text;strokeColor=none;fillColor=none;align=left;verticalAlign=middle;spacingLeft=4;spacingRight=4;overflow=hidden;points=[[0,0.5],[1,0.5]];portConstraint=eastwest;rotatable=0;whiteSpace=wrap;html=1;rounded=1;fontFamily=Courier New;labelBackgroundColor=default;fontSize=9;" parent="wy4c9mbsXyodpzU9gjJJ-33" vertex="1">
          <mxGeometry y="30" width="140" height="30" as="geometry" />
        </mxCell>
        <mxCell id="wy4c9mbsXyodpzU9gjJJ-35" value="billing_name" style="text;strokeColor=none;fillColor=none;align=left;verticalAlign=middle;spacingLeft=4;spacingRight=4;overflow=hidden;points=[[0,0.5],[1,0.5]];portConstraint=eastwest;rotatable=0;whiteSpace=wrap;html=1;rounded=1;fontFamily=Courier New;fontSize=9;" parent="wy4c9mbsXyodpzU9gjJJ-33" vertex="1">
          <mxGeometry y="60" width="140" height="30" as="geometry" />
        </mxCell>
        <mxCell id="wy4c9mbsXyodpzU9gjJJ-36" value="billing_address" style="text;strokeColor=none;fillColor=none;align=left;verticalAlign=middle;spacingLeft=4;spacingRight=4;overflow=hidden;points=[[0,0.5],[1,0.5]];portConstraint=eastwest;rotatable=0;whiteSpace=wrap;html=1;rounded=1;fontSize=9;fontFamily=Courier New;" parent="wy4c9mbsXyodpzU9gjJJ-33" vertex="1">
          <mxGeometry y="90" width="140" height="30" as="geometry" />
        </mxCell>
        <mxCell id="wy4c9mbsXyodpzU9gjJJ-37" value="" style="edgeStyle=entityRelationEdgeStyle;fontSize=12;html=1;endArrow=ERoneToMany;startArrow=ERzeroToMany;rounded=1;hachureGap=4;fontFamily=Courier New;" parent="1" source="mjoqd2JL3-UamSWrY_jR-5" target="wy4c9mbsXyodpzU9gjJJ-33" edge="1">
          <mxGeometry width="100" height="100" relative="1" as="geometry">
            <mxPoint x="430" y="-130" as="sourcePoint" />
            <mxPoint x="530" y="-230" as="targetPoint" />
          </mxGeometry>
        </mxCell>
        <mxCell id="wy4c9mbsXyodpzU9gjJJ-38" value="" style="edgeStyle=entityRelationEdgeStyle;fontSize=12;html=1;endArrow=ERoneToMany;startArrow=ERoneToMany;rounded=1;hachureGap=4;fontFamily=Courier New;" parent="1" source="mjoqd2JL3-UamSWrY_jR-13" target="wy4c9mbsXyodpzU9gjJJ-33" edge="1">
          <mxGeometry width="100" height="100" relative="1" as="geometry">
            <mxPoint x="580" y="100" as="sourcePoint" />
            <mxPoint x="790" y="-110" as="targetPoint" />
          </mxGeometry>
        </mxCell>
        <mxCell id="wy4c9mbsXyodpzU9gjJJ-39" value="TIMESTAMP" style="strokeWidth=2;html=1;shape=mxgraph.flowchart.stored_data;whiteSpace=wrap;hachureGap=4;fontFamily=Courier New;fontSize=9;rounded=1;shadow=1;" parent="1" vertex="1">
          <mxGeometry x="100" y="-80" width="100" height="60" as="geometry" />
        </mxCell>
        <mxCell id="wy4c9mbsXyodpzU9gjJJ-40" value="&lt;font style=&quot;font-size: 12px;&quot;&gt;Product_Tag&lt;/font&gt;" style="swimlane;fontStyle=0;childLayout=stackLayout;horizontal=1;startSize=30;horizontalStack=0;resizeParent=1;resizeParentMax=0;resizeLast=0;collapsible=1;marginBottom=0;whiteSpace=wrap;html=1;labelBackgroundColor=none;fontFamily=Courier New;fontSize=9;fillColor=#f8cecc;strokeColor=#b85450;rounded=1;shadow=1;glass=1;" parent="1" vertex="1">
          <mxGeometry x="285" y="360" width="140" height="120" as="geometry" />
        </mxCell>
        <mxCell id="wy4c9mbsXyodpzU9gjJJ-41" value="tag_id" style="text;strokeColor=none;fillColor=none;align=left;verticalAlign=middle;spacingLeft=4;spacingRight=4;overflow=hidden;points=[[0,0.5],[1,0.5]];portConstraint=eastwest;rotatable=0;whiteSpace=wrap;html=1;fontSize=9;fontFamily=Courier New;rounded=1;" parent="wy4c9mbsXyodpzU9gjJJ-40" vertex="1">
          <mxGeometry y="30" width="140" height="30" as="geometry" />
        </mxCell>
        <mxCell id="wy4c9mbsXyodpzU9gjJJ-42" value="tag_name" style="text;strokeColor=none;fillColor=none;align=left;verticalAlign=middle;spacingLeft=4;spacingRight=4;overflow=hidden;points=[[0,0.5],[1,0.5]];portConstraint=eastwest;rotatable=0;whiteSpace=wrap;html=1;fontSize=9;fontFamily=Courier New;rounded=1;" parent="wy4c9mbsXyodpzU9gjJJ-40" vertex="1">
          <mxGeometry y="60" width="140" height="30" as="geometry" />
        </mxCell>
        <mxCell id="wy4c9mbsXyodpzU9gjJJ-43" value="Item 3" style="text;strokeColor=none;fillColor=none;align=left;verticalAlign=middle;spacingLeft=4;spacingRight=4;overflow=hidden;points=[[0,0.5],[1,0.5]];portConstraint=eastwest;rotatable=0;whiteSpace=wrap;html=1;fontSize=9;fontFamily=Courier New;rounded=1;" parent="wy4c9mbsXyodpzU9gjJJ-40" vertex="1">
          <mxGeometry y="90" width="140" height="30" as="geometry" />
        </mxCell>
        <mxCell id="wy4c9mbsXyodpzU9gjJJ-45" value="&lt;p&gt;&lt;font style=&quot;font-size: 12px;&quot;&gt;Credit_Info&lt;/font&gt;&lt;/p&gt;" style="swimlane;fontStyle=0;childLayout=stackLayout;horizontal=1;startSize=30;horizontalStack=0;resizeParent=1;resizeParentMax=0;resizeLast=0;collapsible=1;marginBottom=0;whiteSpace=wrap;html=1;labelBackgroundColor=none;fontFamily=Courier New;fontSize=9;fillColor=#dae8fc;strokeColor=#6c8ebf;rounded=1;arcSize=50;shadow=1;glass=1;swimlaneLine=1;" parent="1" vertex="1">
          <mxGeometry x="290" y="-300" width="140" height="150" as="geometry" />
        </mxCell>
        <mxCell id="wy4c9mbsXyodpzU9gjJJ-46" value="credit_num" style="text;strokeColor=none;fillColor=none;align=left;verticalAlign=middle;spacingLeft=4;spacingRight=4;overflow=hidden;points=[[0,0.5],[1,0.5]];portConstraint=eastwest;rotatable=0;whiteSpace=wrap;html=1;fontSize=9;fontFamily=Courier New;rounded=1;" parent="wy4c9mbsXyodpzU9gjJJ-45" vertex="1">
          <mxGeometry y="30" width="140" height="30" as="geometry" />
        </mxCell>
        <mxCell id="wy4c9mbsXyodpzU9gjJJ-47" value="credit_pin" style="text;strokeColor=none;fillColor=none;align=left;verticalAlign=middle;spacingLeft=4;spacingRight=4;overflow=hidden;points=[[0,0.5],[1,0.5]];portConstraint=eastwest;rotatable=0;whiteSpace=wrap;html=1;fontSize=9;fontFamily=Courier New;rounded=1;" parent="wy4c9mbsXyodpzU9gjJJ-45" vertex="1">
          <mxGeometry y="60" width="140" height="30" as="geometry" />
        </mxCell>
        <mxCell id="wy4c9mbsXyodpzU9gjJJ-48" value="credit_expDate" style="text;strokeColor=none;fillColor=none;align=left;verticalAlign=middle;spacingLeft=4;spacingRight=4;overflow=hidden;points=[[0,0.5],[1,0.5]];portConstraint=eastwest;rotatable=0;whiteSpace=wrap;html=1;fontSize=9;fontFamily=Courier New;rounded=1;" parent="wy4c9mbsXyodpzU9gjJJ-45" vertex="1">
          <mxGeometry y="90" width="140" height="30" as="geometry" />
        </mxCell>
        <mxCell id="wy4c9mbsXyodpzU9gjJJ-49" value="credit_id" style="text;strokeColor=none;fillColor=none;align=left;verticalAlign=middle;spacingLeft=4;spacingRight=4;overflow=hidden;points=[[0,0.5],[1,0.5]];portConstraint=eastwest;rotatable=0;whiteSpace=wrap;html=1;fontSize=9;fontFamily=Courier New;rounded=1;" parent="wy4c9mbsXyodpzU9gjJJ-45" vertex="1">
          <mxGeometry y="120" width="140" height="30" as="geometry" />
        </mxCell>
        <mxCell id="wy4c9mbsXyodpzU9gjJJ-50" value="" style="edgeStyle=entityRelationEdgeStyle;fontSize=12;html=1;endArrow=ERoneToMany;startArrow=ERmandOne;rounded=1;fontFamily=Courier New;" parent="1" source="wy4c9mbsXyodpzU9gjJJ-45" target="mjoqd2JL3-UamSWrY_jR-13" edge="1">
          <mxGeometry width="100" height="100" relative="1" as="geometry">
            <mxPoint x="390" y="40" as="sourcePoint" />
            <mxPoint x="530" y="-250" as="targetPoint" />
          </mxGeometry>
        </mxCell>
        <mxCell id="wy4c9mbsXyodpzU9gjJJ-53" value="" style="edgeStyle=entityRelationEdgeStyle;fontSize=12;html=1;endArrow=ERoneToMany;startArrow=ERmandOne;rounded=1;fontFamily=Courier New;" parent="1" source="wy4c9mbsXyodpzU9gjJJ-48" target="wy4c9mbsXyodpzU9gjJJ-33" edge="1">
          <mxGeometry width="100" height="100" relative="1" as="geometry">
            <mxPoint x="390" y="40" as="sourcePoint" />
            <mxPoint x="490" y="-60" as="targetPoint" />
          </mxGeometry>
        </mxCell>
        <mxCell id="wy4c9mbsXyodpzU9gjJJ-54" value="" style="edgeStyle=entityRelationEdgeStyle;fontSize=12;html=1;endArrow=ERmandOne;startArrow=ERmandOne;rounded=1;fontFamily=Courier New;" parent="1" source="wy4c9mbsXyodpzU9gjJJ-40" target="mjoqd2JL3-UamSWrY_jR-21" edge="1">
          <mxGeometry width="100" height="100" relative="1" as="geometry">
            <mxPoint x="480" y="430" as="sourcePoint" />
            <mxPoint x="580" y="330" as="targetPoint" />
          </mxGeometry>
        </mxCell>
        <mxCell id="wy4c9mbsXyodpzU9gjJJ-56" value="" style="edgeStyle=entityRelationEdgeStyle;fontSize=12;html=1;endArrow=ERmany;startArrow=ERmany;rounded=1;fontFamily=Courier New;" parent="1" source="mjoqd2JL3-UamSWrY_jR-13" target="wy4c9mbsXyodpzU9gjJJ-21" edge="1">
          <mxGeometry width="100" height="100" relative="1" as="geometry">
            <mxPoint x="510" y="50" as="sourcePoint" />
            <mxPoint x="520" y="90" as="targetPoint" />
          </mxGeometry>
        </mxCell>
        <mxCell id="Vg9ZYjElxbi22y-l5GeG-3" value="" style="rounded=1;absoluteArcSize=1;html=1;arcSize=10;shadow=1;glass=1;labelBackgroundColor=none;sketch=0;fontFamily=Courier New;fontSize=12;" parent="1" vertex="1">
          <mxGeometry x="-410" y="-280" width="460" height="290" as="geometry" />
        </mxCell>
        <mxCell id="Vg9ZYjElxbi22y-l5GeG-4" value="&lt;u&gt;&lt;b&gt;&lt;font color=&quot;#ff3333&quot; style=&quot;font-size: 17px;&quot;&gt;Key&lt;/font&gt;&lt;br&gt;&lt;/b&gt;&lt;/u&gt;&lt;br&gt;1. Supplier&lt;br&gt;2. Product&lt;br&gt;3. Customer&lt;br&gt;4. Shopping Cart" style="html=1;shape=mxgraph.er.anchor;whiteSpace=wrap;rounded=1;shadow=1;glass=1;labelBackgroundColor=none;sketch=0;fontFamily=Courier New;fontSize=12;" parent="Vg9ZYjElxbi22y-l5GeG-3" vertex="1">
          <mxGeometry width="229.99999999999997" height="290" as="geometry" />
        </mxCell>
        <mxCell id="Vg9ZYjElxbi22y-l5GeG-5" value="&lt;font style=&quot;font-size: 12px;&quot;&gt;&lt;b&gt;&lt;font color=&quot;#0000ff&quot;&gt;&lt;u&gt;&lt;font style=&quot;font-size: 15px;&quot;&gt;Sub-Categories&lt;/font&gt;&lt;br&gt;&lt;/u&gt;&lt;/font&gt;&lt;/b&gt;&lt;br&gt;1. countries, product(only)&lt;br&gt;2. product_tag, timestamp&lt;br&gt;3. credit_info, billing, order, delivery, shopping cart, timestamp&lt;br&gt;4. customer, delivery, product, order, billing, credit_info, timestamp&lt;br&gt;&lt;/font&gt;" style="rounded=1;absoluteArcSize=1;html=1;arcSize=10;whiteSpace=wrap;points=[];strokeColor=inherit;fillColor=inherit;shadow=1;glass=1;labelBackgroundColor=none;sketch=0;fontFamily=Courier New;fontSize=12;" parent="Vg9ZYjElxbi22y-l5GeG-3" vertex="1">
          <mxGeometry x="229.99999999999997" y="14.5" width="206.99999999999997" height="261" as="geometry" />
        </mxCell>
        <mxCell id="ypRy0HX3I6GKrzO0NiH7-1" value="AMAZOOM!" style="ellipse;whiteSpace=wrap;html=1;fontStyle=3" parent="1" vertex="1">
          <mxGeometry x="-100" y="-580" width="410" height="250" as="geometry" />
        </mxCell>
      </root>
    </mxGraphModel>
  </diagram>
</mxfile>
